<svg version="1.2" xmlns="http://www.w3.org/2000/svg" viewBox="0 0 120 40" width="120" height="40">
	<title>New Project</title>
	<style>
		.s0 { fill: #000 } 
	</style>
	<path id="CAP" class="s0" aria-label="CAP"  d="m23.5 23.1l4 4.7q-3.3 3.3-8 3.3-4.4 0-7.6-3-3.2-3-3.2-7.3 0-4.2 3.2-7.2 3.2-3.1 7.6-3.1 4.5 0 7.7 3l0.3 0.3-4 4.6q-1.4-2-4-2-1.9 0-3.3 1.3-1.4 1.3-1.4 3.1 0 1.8 1.4 3.2 1.4 1.2 3.3 1.2 2.6 0 4-2.1zm4.9 5.9l3.9 4.5q-5.3 4.9-12.8 4.9-7.6 0-13.1-5.2-5.5-5.2-5.5-12.4 0-7.3 5.5-12.4 5.5-5.2 13.1-5.2 7.5 0 12.8 4.8l-3.9 4.6q0 0-0.1-0.1-3.6-3.4-8.8-3.4-5.1 0-8.8 3.4-3.6 3.4-3.6 8.3 0 4.9 3.6 8.3 3.7 3.4 8.8 3.4 5.3 0 8.9-3.5zm37.8-24.3l18.7 32.2h-7l-18.7-32.2zm-7.9 1.5l17.8 30.7h-7.1l-4.2-7.3-6.5 8.2-6.6-8.2-4.2 7.3h-7zm-7.9-1.5h7l-18.7 32.2h-7zm2 23.8l11.7-0.1-5.8-10zm58.7-9.8q0 2.7-2 4.7-2 1.9-5 1.9h-9.4v-13.2l9.4-0.1q2.9 0 5 2 2 1.9 2 4.7zm7.8 0q0 5.7-4.4 9.8-4.3 4.1-10.4 4.1h-3.2v4.4h-6.2v-10.2h9.4q3.6 0 6.1-2.4 2.5-2.4 2.5-5.7 0-3.4-2.5-5.7-2.6-2.4-6.1-2.4h-10.9v26.4h-6.2v-32.2h17.1q6.1 0 10.4 4.1 4.4 4 4.4 9.8zm-13.8 0q0-0.6-0.6-1.1-0.5-0.5-1.1-0.5h-2.7v3.2h2.7q0.7 0 1.2-0.4 0.5-0.5 0.5-1.2z"/>
</svg>